<svg xmlns="http://www.w3.org/2000/svg" viewBox="0 0 780 560" role="img" aria-label="FLAT_PLATE_001 | 160.00 x 100.00 mm">
  <defs>
    <marker id="arrow" viewBox="0 0 10 10" refX="5" refY="5" markerWidth="6" markerHeight="6" orient="auto-start-reverse">
      <path d="M 0 0 L 10 5 L 0 10 z" fill="#374151" />
    </marker>
  </defs>
  <style>
    .bg { fill: #f8fafc; }
    .grid { stroke: #e5e7eb; stroke-width: 1; }
    .cut { fill: none; stroke: #dc2626; stroke-width: 3; stroke-linejoin: round; }
    .bend { stroke: #2563eb; stroke-width: 2; stroke-dasharray: 10 8; }
    .hole { fill: none; stroke: #16a34a; stroke-width: 3; }
    .dimension, .extension { stroke: #374151; stroke-width: 1.4; }
    .dimension-arrow { fill: #374151; stroke: none; }
    .fold-arrow { stroke: #7c3aed; stroke-width: 2; }
    .label, .bend-label, .hole-label { fill: #111827; font-family: Arial, sans-serif; font-size: 16px; font-weight: 700; }
    .meta { fill: #4b5563; font-family: Arial, sans-serif; font-size: 13px; }
    .dim-label, .bend-note { fill: #374151; font-family: Arial, sans-serif; font-size: 12px; font-weight: 700; }
    .table-title { fill: #111827; font-family: Arial, sans-serif; font-size: 13px; font-weight: 700; }
    .table-text { fill: #4b5563; font-family: Arial, sans-serif; font-size: 12px; font-family: monospace; }
    .legend { fill: #111827; font-family: Arial, sans-serif; font-size: 13px; font-weight: 700; }
    .legend-sample { stroke-width: 3; }
  </style>
  <rect class="bg" x="0" y="0" width="780" height="560" rx="14" />
  <rect class="draw-safe-zone" x="78.00" y="132.00" width="624.00" height="258.00" fill="none" />
  <line class="grid" x1="183.60" y1="132.00" x2="596.40" y2="132.00" />
  <line class="grid" x1="183.60" y1="390.00" x2="596.40" y2="390.00" />
  <polyline class="cut" points="183.60,390.00 596.40,390.00 596.40,132.00 183.60,132.00 183.60,390.00" /><circle class="hole" cx="261.00" cy="312.60" r="12.90" /><text class="hole-label" x="261.00" y="290.70" text-anchor="middle">H1</text><circle class="hole" cx="519.00" cy="312.60" r="12.90" /><text class="hole-label" x="519.00" y="290.70" text-anchor="middle">H2</text><circle class="hole" cx="261.00" cy="209.40" r="12.90" /><text class="hole-label" x="261.00" y="187.50" text-anchor="middle">H3</text><circle class="hole" cx="519.00" cy="209.40" r="12.90" /><text class="hole-label" x="519.00" y="187.50" text-anchor="middle">H4</text>
  <text class="label" x="24.00" y="30.00">FLAT_PLATE_001</text><text class="meta" x="24.00" y="52.00">MATERIAL: Aluminium 5052</text><text class="meta" x="24.00" y="68.00">THICKNESS: 2.00 mm</text><text class="meta" x="24.00" y="84.00">FLAT SIZE: 160.00 x 100.00 mm</text><text class="meta" x="24.00" y="100.00">HOLES: 4</text><line class="cut legend-sample" x1="24.00" y1="532.00" x2="52.00" y2="532.00" /><text class="legend" x="60.00" y="536.00">CUT</text><line class="bend legend-sample" x1="118.00" y1="532.00" x2="146.00" y2="532.00" /><text class="legend" x="154.00" y="536.00">BEND</text><circle class="hole legend-sample" cx="238.00" cy="532.00" r="7.00" /><text class="legend" x="252.00" y="536.00">HOLE</text><line class="extension" x1="183.60" y1="390.00" x2="183.60" y2="431.00" /><line class="extension" x1="596.40" y1="390.00" x2="596.40" y2="431.00" /><line class="dimension" x1="183.60" y1="424.00" x2="596.40" y2="424.00" /><polygon class="dimension-arrow" points="183.60,424.00 193.60,428.50 193.60,419.50" /><polygon class="dimension-arrow" points="596.40,424.00 586.40,419.50 586.40,428.50" /><text class="dim-label" x="390.00" y="415.00" text-anchor="middle">WIDTH 160.00 mm</text><line class="extension" x1="183.60" y1="132.00" x2="140.60" y2="132.00" /><line class="extension" x1="183.60" y1="390.00" x2="140.60" y2="390.00" /><line class="dimension" x1="147.60" y1="132.00" x2="147.60" y2="390.00" /><polygon class="dimension-arrow" points="147.60,132.00 143.10,142.00 152.10,142.00" /><polygon class="dimension-arrow" points="147.60,390.00 152.10,380.00 143.10,380.00" /><text class="dim-label" x="136.60" y="261.00" text-anchor="middle" transform="rotate(-90 136.60 261.00)">LENGTH 100.00 mm</text><text class="table-title" x="520.00" y="30.00">HOLE TABLE</text><text class="table-text" x="520.00" y="48.00">ID    X      Y      DIA/SIZE</text><text class="table-text" x="520.00" y="64.00">H1    30.0   30.0   10.0</text><text class="table-text" x="520.00" y="80.00">H2   130.0   30.0   10.0</text><text class="table-text" x="520.00" y="96.00">H3    30.0   70.0   10.0</text><text class="table-text" x="520.00" y="112.00">H4   130.0   70.0   10.0</text>
</svg>